<?xml version="1.0" encoding="UTF-8"?>
<svg version="1.1" viewBox="0 0 600 600" xmlns="http://www.w3.org/2000/svg">
  <g>
    <path
      d="m208.7 314.78 13.824-14.086 0.085938-2.7812h-23.652l16.781 3.5664v0.085937c-1.3906 1.3047-2.6953 2.4336-4 3.7383l-14 16.871h25.129l-18.086-3.4766v-0.085938c1.3984-1.2227 2.6992-2.4375 3.918-3.832z" />
    <path
      d="m183.39 245.82v0.17578c-1.9141 2.5234-3.7383 4.8711-5.5664 7.3906l-18.086 31.824 41.391-7.3906-30.871-0.43359v-0.17578c1.9141-2.4336 3.7383-4.8711 5.3906-7.4766l18.609-27.305-0.69531-4.5234-38.871 6.957z" />
    <path
      d="m129.3 170.52-46.434 28.086 58.871 20.348-39.566-22.871 0.085938-0.26172c4.3477-1.8242 8.2617-3.5664 12.348-5.7383l43.738-21.824 2.3477-6.4336-55.305-19.129 36.348 21.914-0.085937 0.26172c-4.2617 2.082-8.1758 3.7344-12.348 5.6484z" />
    <path
      d="m1154.3 1003.9c-35.477-13.824-81.824-20.781-120-23.219-31.129-4.957-83.824-12.348-115.22-14.871l-2-24.348c2-0.17578 3.1289-1.8242 2.957-3.4766l-23.219-281.04h20c1.8242 0 3.3047-1.4766 3.3047-3.3047v-13.043c0-1.8242-1.4766-3.3047-3.3047-3.3047h-30.609c7.7383-11.652 7.5664-30.695 5.9141-49.914-0.17578-2.957-2.7812-5.3047-5.8242-5.3047h-0.87109c1.9141-16.781-0.34766-35.043-7.043-48-5.6523 11.129-9.1289 28.176-6.957 48h-3.2188c4.2617-20.086 2.3477-44.086-5.9141-60.523-7.4766 14.781-10.695 38.086-5.8242 60.523h-2.8711c1.2188-14.348-0.78125-29.391-6.3477-40.523-4.6094 9.1289-6.8711 20.957-6.8711 32.695 0 2.6094 0.17578 5.2188 0.34766 7.8242h-0.60938c-2.957 0-5.5664 2.3477-5.8242 5.3047-1.5664 18.086-2.3477 37.824 5.8242 50h-68l43.129-119.22c0.78125-2.1758-0.78125-4.4336-3.043-4.4336h-13.652c-1.3906 0-2.6094 0.87109-3.043 2.1758l-38.781 107.22h-147.82c-2.8711-1.4766-3.043-1.5664-6-3.043 33.824 0.17578 37.914 2 39.477-5.6523 0.69531-3.5664-1.043-8.0859-6.1758-9.8242-63.738-12.609-51.824-12.957-76.348-4.1758-1.8242-2.6953 4.0859 0.52344-94.434-41.738-61.914-72.176-53.824-62.781-54.695-63.652-37.914-53.566-59.738-55.914-103.22-78.609l-5.5664-5.6523c12.262-17.738 6.4336-19.305-15.652-34.695 1.7383-7.3047-8.6094-10.781-16.957-11.305-5.1289-0.34766-10-0.60938-14.781-5.1289-4-3.3047-13.652-11.043-17.477-8-4.5234-5.5664-8.2617-9.3047-13.824-7.7383-16.176 4.2617-35.391 26.434-37.305 49.824-0.69531 9.3906 10.086 11.043 10.262 12.086-3.3047 16.262 9.3906 24 25.043 27.566-2.0859 3.5664-3.2188 7.6523-2.6953 12l33.305 270.87c1.043 8.5234 7.4766 15.043 15.566 16.434 4.7812 18.523 17.738 34.871 34.695 43.305v1.2188c0 8.4336 6.6094 15.219 15.129 15.477l74.348 1.8242c0 7.1289-1.9141 0 11.219 33.824-2.1758 5.6523-2.8711 12.086-1.5664 18.871-5.043 4-5.4766 11.477-3.1289 20.176-11.129 4.2617-8.1758 7.1289-8.1758 87.652-8.0859 2.0859-15.738 5.043-22.609 9.2188-20.609 1.2188-47.566 3.6523-68.871 5.6523-88.348 7.8242-254.96-5.9141-254.96 37.043 0 19.914 240.96 34.695 286.52 37.824-60 3.6523-60.434 2.6094-60.348 6.8711 0 1.7383 1.3906 3.1289 3.1289 3.2188 87.477 3.7383 436.09 2.0859 517.3 0.60938h0.52344c103.48 3.2148 394.09-39.742 363.65-51.566zm-678.44-32.438c-8.957-7.8242-20.523-13.305-33.305-16.523v-41.043c2.0859-0.78125-3.4766 2.6094 54.434-34.262 0.60938 1.1289 1.1289 2.2617 1.5664 3.3906-0.085937 2.4336-0.085937 4.7812-0.17578 7.1289-6 10.176-6.1758 11.824 0 23.914 0.085938 4.2617-0.26172 5.4766 1.5664 8.0859-2.6953 5.4766-12.086 6.3477-7.043 26 3.0469 11.57 2.7852 20.266-17.043 23.309zm-75.824-98c5.6523 14.176 21.219 38.262 35.914 41.043v39.043c-7.8242-1.4766-16-2-24.086-1.7383-16.086-8-12.086-20-12.086-78.176 0.082031-0.082032 0.17187-0.17188 0.25781-0.17188zm-97.219-452.43c2.0859 4.7812-16.695 26.957-21.738 25.824-0.43359-0.085938-0.60938 0-1.9141-1.2188 13.738-9.1289 19.305-19.043 19.129-29.477 2.1758 1.9141 3.8281 4.2617 4.5234 4.8711zm27.914 14.523-1.9141 10.871c-14.523-6.1758-30.434-2.7812-40.348 10.434l-3.3047-4.5234c8.8711-3.7383 21.477-18.523 23.738-28 22.609 11.828 20.438 10.781 21.828 11.219zm556.35 505.91 1.9141 23.043c-30.957 0.085938-178.43 15.129-202.7 9.6523-48-10.957-40.871-40.781-55.305-40.695l0.78125-6.6953c5.2188-2.4336 8.6094-6.1758 8.6094-11.305v-0.17578c-10.695-232.87-9.3906-216.96-11.652-225.91h234.35l20.609 248.96c0.085937 2.4375 2 3.1328 3.3906 3.1328zm-609.57-488.52c7.2188 9.8242 6.5234 9.1289 7.4766 9.6523-2.957 5.8242-4.957 13.043-5.7383 21.566h-0.17578c-1.8203-38.699-1.4727-29.305-1.5625-31.219zm52.609-5.5664c74.086 26.086 127.74 160.43 130.87 185.57-7.3906 17.652-40 18.523-59.305 18.609-0.17578-10.609-13.219-45.219-21.305-65.738-2.3477-12.523-5.043-25.738-8.0859-37.391-1.043-4.1758-7.4766-2.6094-6.3477 1.6523 9.2188 36.176 16.086 87.043 16.348 88.262 4.6094 13.219-16.781-48 45.219 129.57-0.26172 1.3906-9.1289 9.4766-24.434 13.129-16.609-21.129-74-95.391-84.086-127.57-12.434-39.043-26.523-121.22-24.781-162.18 1.3867-29.652 17.906-44.086 35.906-43.914zm289.91 222.52h241.39l1.043 13.043h-235.82c-1.043-2.8711-3.6523-8.5234-6.6094-13.043zm4.7812 259.21c-0.95703 8.6094-4.2617 2.5234-4.0859 11.566-4.4336 1.5664-22.957-0.52344-24.434-0.52344l-0.52344-11.824c8.7852 2.7812 20.609 2.8711 29.043 0.78125zm-164.7-119.65-6 3.8242c-1.2188-0.87109-2.5234-1.7383-3.8242-2.4336l-2-5.2188c2.6953-0.95703 6.957-5.4766 6.6953-9.5664l48.176 1.2188c-1.043 16.262-1.9141 30.957-2.6953 44.348-1.3906-2.6953-2.957-5.3906-4.5234-7.9141-7.6523-11.91-24-31.734-35.828-24.258zm-32.262-60.086 84.781 0.52344c2.5234 1.3906 4 3.7383 4.4336 6.0859 5.3047 30.523 4.2617 23.477 4.1758 26.086l-79.477-2.0859-8.6953-8.957c1.9141-3.4766 1.2188-3.3047-5.2188-21.652zm32.699-104.7 97.477 19.043c29.824 2.3477 53.219 26.523 54.434 56.348l8.6953 187.74c-10.609 0.69531-21.129 0.87109-21.129-4.0859l-35.043-171.48c-161.22-3.1289-139.13-2.6094-144.09-2.957l-24.695-70.781c11.824-1.1328 47.738 1.3008 64.348-13.828zm165.56 299.3c8.6094 0.60938 4.4336 2.2617 28.086 27.824-22-2.6953-42.609-5.6523-62.609-7.5664 2.957-9.3047 0.87109-12.348 2.4336-17.305 5.1328-1.3008 27.918 4.4375 32.09-2.9531zm-98.086-161.13c0.085938-0.87109-2.8711-26.871-6.2617-32.871l25.914 0.17578 17.043 80c-45.738 93.652-40 82.871-42.609 85.219-1.5664-17.477-7.2188-40.695-16.086-60.262 0.78125-16.695 1.9141-35.914 3.3047-57.738 12.434 0.25781 18.348-6.6133 18.695-14.523zm12.176 150.61 1.2188-10.781c4.1758-3.4766 1.2188 1.1289 19.566-36.523-4.4336 53.391-5.9141 54.781-1.3047 55.305l-1.043 12.523c-13.742-16.262-8.0898-20.609-18.438-20.523zm28.781-63.562 3.043-6.3477c12.695 59.043 10.609 56.609 15.824 60.781l-0.87109 10.523h-23.391zm-46.176 59.215c4-0.17578 8-0.78125 11.566-2.0859l-0.78125 6.6953c-1.5664 0.17578-2.8711 1.3906-2.957 2.957-0.085937 1.7383-0.60938 3.8242-0.43359 3.9141-0.26172 0.085937-1.9141 0.52344-8.8711 0.52344 0.95703-3.8281 1.3906-7.9141 1.4766-12.004zm-3.7383 18.609c12.695 0.17578 14.609-0.43359 16.434-3.7383 9.3047 0.60938 5.3906 2.7812 19.043 18.434-25.215-0.69531-36.867-10.348-35.477-14.695zm-86.781-123.3c0.085937-0.69531 0-1.3906-0.17578-1.8242-5.043-12.957-5.5664-16.695-10.262-14.871-2.0859 0.87109-3.1289 3.1289-2.2617 5.3047 6.2617 16.086 4.6094 11.914 5.3906 13.219-0.085937 0.085937-0.085937 0.17578-0.17578 0.17578l-2.4336 0.95703s-0.17578-0.085937-0.34766-0.085937c-0.085938-0.17578 0-0.43359-0.085938-0.60938-4.8711-12.609-5.4766-16.781-10.262-14.871-1.4766 0.52344-2.3477 1.8242-2.5234 3.2188l-6.3477-16.176s0.085937-5.6523-0.085938-11.043c9.9141-1.8242 20.434-6.957 26.176-11.652 20.086 20.781 20.086 20.176 19.305 21.129-2.8711 3.1289-1.4766 3.3047-7.3906-1.1289-3.4766-2.5234-7.3047 2.5234-4 5.2188l3.9141 3.1289c6.1758 15.738 6.5234 13.391 2.0859 15.043 0 0-0.17578-0.085937-0.26172-0.085937-0.17578-1.043 0.78125 1.5664-5.043-13.305-1.8242-4.957-9.7383-2.0859-7.7383 3.043 6.2617 16 4.6094 12 5.3906 13.219-0.085937 0.085938-0.085937 0.17578-0.17578 0.17578l-2.5234 0.95703 1.1289 2.8711zm46.434-1.9102c-3.8242 3.5664-1.3906 23.219-2 32.086-20.957-28.086-19.652-53.828 2-32.086zm-195.48-109.05c-9.4766 0.43359-15.914-6.0859-16.871-13.824l-32.434-264.35c6.0859 0.60937 12 0.87109 17.219 0.87109 13.824 7.5664 19.391 9.2188 19.824 17.652 16.172 342.61 11.738 240 12.262 259.65zm101.56 65.133c-68.523-1.7383-63.738 4.0859-63.738-30.176l40.695 0.085937c9.5664 12.785 17.914 23.566 23.043 30.09zm22.523 57.914c4.0859 2.957 10.781 0.43359 12.957-2.6953 0.43359 0.085937 0.87109 0.085937 1.3047 0.085937l-14.348 9.1289c-0.26172-2.2617-0.17578-4.4336 0.085938-6.5195zm-1.7383 15.301 49.391-31.391c-0.26172 16.523 19.129 48 35.391 55.652l-49.477 31.391c-11.914 7.5664-48.262-47.391-35.305-55.652zm507.65 83.047h-23.391l-22.957-278.09h23.391zm0.25781-284.61h-314.87c-5.043-2.7812-11.043-5.1289-17.129-6.4336h332zm-35.301-13.566c-27.738 3.5664-32.176-20.348-30.523-48.176h37.914c1.6523 19.914 1.8242 39.305-7.3906 48.176zm-343.05-1.5664c20.871-0.95703 18.957-0.78125 20.262-1.3047l44.176 1.6523v1.7383c-62.609 0.003906-50.262 0.69922-64.438-2.0859zm223.91-5.6523c1.3906 0 2.6094-0.87109 3.043-2.1758l38.781-107.22h6.6953l-42.348 117.04h-159.13v-1.4766c2.7812-0.085938 5.3906-2.1758 5.8242-6.2617l147.13 0.003906zm-123.74-16c-0.95703 0-47.219-0.26172-46.262-0.26172-3.4766 0-4.5234 4.6953-1.4766 6.1758l12.176 6.1758c-0.17578 0.87109-0.085938-0.43359-0.085938 3.3047l-37.305-1.3906c4-13.652 11.738-22 22.871-26.434 0.34766 0.085937-5.1289-1.043 49.305 9.6523 1.7344 0.69141 1.7344 2.7773 0.77734 2.7773zm-173.22-49.215c97.305 41.738 91.129 39.129 92 39.219 3.3047 1.3047 3.043 23.305-1.5664 24.262l-84.262 4c5.1289-20.781-25.738-82.957-35.566-101.13 30.266 35.125 28.352 33.211 29.395 33.648zm-205.3-195.48c0.34766 3.043 1.5664 6.4336-2 8.8711 6 2.8711 8.0859-5.043 2.957-8.5234 9.3047 3.5664 17.305 0.085938 22.262 5.5664l-0.43359 0.17578c-0.26172 0.34766-1.3047 1.7383-1.7383 2.1758-3.6523 1.5664-2 7.3047 2.1758 6.1758l3.8242-1.1289c2.0859 1.3906 4.7812 3.1289 7.2188 4.7812-0.52344 1.6523-0.95703 3.3047-0.95703 5.043 0.085937 0.26172 0.17578 0.43359 0.34766 0.69531 1.5664-1.043 3.6523-1.7383 5.2188-2.3477 4.4336 3.4766 6.2617 6.5234 6 7.3047-6.1758 14.262-24.434 30.957-30 35.914-17.391-9.5664-16.086-9.2188-17.566-9.2188-1.6523 0-8.6953 2.5234-12.609-4.0859-1.1289-1.9141-1.1289-3.6523 0.085937-5.3047 1.5664-2.4336 6.7812-0.95703 12-0.43359 4.6094 0.60938 7.3047-7.6523-4.4336-12.434-11.305-5.8242-7.3047-4.1758-11.305-13.566-2.4336-5.9141-10.262-7.9141 2.6953-30.695 6.8672 3.4727 10.605 8.6016 16.258 11.035zm23.043 361.74c14.348-7.7383 10.523-6.0859 3.3906-157.57 13.043 79.738 19.652 95.738 73.652 168.96l-39.219-0.085937c-8 0-14.523 6.1758-15.305 14-10.43-5.5664-18.168-14.523-22.52-25.305zm184.44 240.61c-26.609-3.6523-54.348-8.1758-79.566-7.7383 25.652-8.7812 58.176-5.7383 79.566 7.7383zm-165.22 5.1328c112.43-10.176 94.523-7.043 171.91 2.2617 4.2617-0.26172 10.262-1.2188 14.871-2.8711 10.086 5.4766 23.219 6 35.477 6 37.652 0.17578 97.824 11.914 135.74 13.391 60.348 2.4336 159.04-16.609 228.61-9.6523 64.871 6.5234 105.13 14.262 108.18 14.262 24.523 1.7383 51.477 4.957 77.219 10.695-75.477 11.738-168.35 22.695-233.3 20.609-0.17578-0.085937-0.43359-0.085937-0.69531 0-74.176 1.3906-425.82 3.2188-517.04-0.52344 15.043-1.1289 110.18-6.7812 110.18-6.7812s-334.7-19.566-336.26-37.824c60.43-8.8711 138.52-3.5664 205.12-9.5664z" />
  </g>
</svg>
